<?xml version="1.0" standalone="no"?>
<!DOCTYPE svg PUBLIC "-//W3C//DTD SVG 20010904//EN"
 "http://www.w3.org/TR/2001/REC-SVG-20010904/DTD/svg10.dtd">
<svg version="1.0" xmlns="http://www.w3.org/2000/svg"
 width="5884.000000pt" height="4185.000000pt" viewBox="0 0 5884.000000 4185.000000"
 preserveAspectRatio="xMidYMid meet">

<g transform="translate(0.000000,4185.000000) scale(0.100000,-0.100000)"
fill="#000000" stroke="none">
<path d="M36687 39145 c-27 -7 -50 -15 -52 -17 -2 -2 40 -3 93 -4 109 -1 194
-27 304 -91 119 -70 288 -257 288 -320 0 -30 -36 -102 -55 -110 -10 -3 -15
-20 -15 -50 l0 -46 51 79 c65 100 202 237 297 299 160 103 301 148 465 149 59
0 107 1 107 2 0 7 -118 34 -189 44 -240 32 -486 -64 -617 -242 l-42 -58 -12
48 c-33 139 -159 266 -309 312 -75 24 -238 26 -314 5z"/>
<path d="M37250 38256 l0 -209 46 -49 46 -50 -4 191 c-3 178 -5 192 -25 213
-12 13 -31 43 -42 68 l-21 45 0 -209z"/>
<path d="M36921 38099 c-161 -24 -323 -123 -415 -253 -77 -109 -132 -242 -141
-346 l-5 -55 14 42 c70 210 300 415 566 503 82 27 198 50 258 50 46 1 46 1 22
15 -68 40 -197 58 -299 44z"/>
<path d="M37293 37713 l-43 -53 0 -132 0 -132 33 32 33 32 82 -10 c270 -31
505 -152 669 -344 57 -67 118 -179 129 -239 3 -21 9 -36 11 -33 10 10 -20 153
-48 230 -108 297 -387 485 -666 448 -45 -6 -95 -18 -110 -26 l-28 -14 -10 146
-10 147 -42 -52z"/>
<path d="M49485 37463 c-1036 -29 -1892 -128 -2236 -259 -73 -27 -157 -77
-164 -96 -3 -7 -260 -1502 -572 -3323 -356 -2082 -567 -3336 -567 -3380 -1
-61 4 -80 33 -140 199 -404 1226 -745 2681 -889 202 -20 544 -44 745 -51 88
-3 206 -8 263 -11 l102 -6 0 -6819 0 -6819 -3605 0 c-1983 0 -3605 4 -3605 8
0 5 -36 458 -79 1008 -44 549 -82 1041 -85 1093 l-6 93 38 -5 c35 -6 211 -20
407 -32 262 -16 1204 -3 1500 21 75 6 215 30 223 39 6 5 -105 439 -119 467
-10 18 -76 31 -249 49 -58 6 -347 13 -642 16 -449 5 -538 8 -538 19 0 8 11
130 25 272 63 659 95 1179 101 1647 5 370 5 381 -15 412 -77 122 -539 316
-984 413 -512 112 -1227 126 -2007 39 -102 -12 -186 -22 -188 -24 -2 -1 35
-99 82 -216 94 -239 461 -1315 616 -1811 56 -178 148 -467 205 -643 163 -500
199 -654 199 -840 0 -139 -17 -220 -69 -331 -100 -219 -302 -420 -529 -529
-345 -165 -1100 -328 -2180 -470 -148 -19 -271 -37 -273 -39 -2 -1 3 -35 12
-75 19 -91 65 -406 65 -447 0 -30 -5 -34 -105 -83 l-105 -51 -1850 0 c-1222 0
-1851 3 -1855 10 -4 7 487 10 1464 10 l1471 0 0 85 0 85 -1607 1 c-885 1
-1638 0 -1674 -1 l-66 -2 4 29 c5 31 -1442 4779 -1478 4850 -31 62 -87 96
-162 101 l-62 3 30 -16 c72 -39 86 -65 150 -275 25 -85 66 -218 90 -295 23
-77 57 -187 74 -245 50 -165 102 -333 111 -360 11 -32 112 -362 114 -375 3
-12 54 -179 66 -215 5 -14 16 -52 26 -85 10 -33 19 -64 20 -70 2 -5 64 -208
139 -450 193 -627 183 -594 309 -1005 145 -474 217 -712 220 -725 2 -5 17 -57
35 -115 18 -58 53 -170 77 -250 61 -198 114 -370 124 -402 11 -35 3 -123 -14
-156 -17 -33 -61 -74 -101 -95 -28 -15 -19 -16 163 -17 126 0 192 -4 192 -10
0 -8 -444 -9 -1437 -5 -1675 7 -1361 7 -5330 0 l-3103 -5 0 1685 0 1685 60 71
c32 39 76 104 97 145 44 86 42 89 -46 100 -125 15 -300 -24 -461 -104 l-95
-47 203 -3 202 -2 0 -95 0 -95 -230 0 -230 0 0 95 c0 78 -3 95 -15 95 -12 0
-15 16 -16 75 -1 41 -3 80 -4 85 -1 6 -3 55 -4 110 -1 81 -4 100 -16 100 -11
0 -15 -20 -17 -102 l-3 -103 -252 -3 -253 -2 0 105 0 105 -40 0 -40 0 0 -105
0 -105 -252 2 -253 3 -3 103 c-2 94 -4 102 -22 102 -18 0 -20 -7 -20 -55 0
-42 -3 -55 -15 -55 -12 0 -15 -18 -15 -100 l0 -100 -250 0 -250 0 0 100 c0 93
-1 100 -20 100 -19 0 -20 7 -20 200 0 193 -1 200 -20 200 -19 0 -20 -7 -20
-110 l0 -110 -272 2 -273 3 -3 107 -3 108 265 0 265 0 83 69 c226 189 382 446
438 720 11 57 19 110 16 117 -3 8 -17 14 -31 14 -19 0 -48 -22 -108 -83 -146
-146 -318 -260 -477 -314 -98 -33 -248 -58 -301 -51 -27 4 -37 -3 -90 -61 -33
-36 -87 -105 -121 -153 -34 -48 -63 -86 -65 -84 -3 2 75 265 83 277 2 4 11 44
20 89 21 115 69 243 119 325 24 39 53 95 65 125 18 44 116 249 124 258 2 1 30
-2 63 -6 l60 -8 44 39 c123 109 389 255 549 300 82 23 86 26 124 78 81 112
166 333 166 430 l0 32 -76 -7 c-212 -19 -455 -147 -655 -346 -109 -108 -196
-225 -233 -314 -11 -28 -42 -89 -67 -136 -25 -47 -75 -147 -110 -224 l-64
-139 -11 114 c-14 142 -28 209 -66 324 -55 164 -150 321 -233 387 l-27 21 -19
-24 c-30 -40 -96 -180 -117 -250 -68 -222 -48 -522 48 -727 55 -118 152 -233
236 -280 12 -6 6 -33 -31 -147 -25 -77 -61 -191 -79 -252 l-34 -113 84 0 85 0
-3 -107 -3 -108 -270 0 -270 0 -3 108 c-3 103 -2 107 18 107 21 0 21 0 3 31
-32 56 -213 237 -282 283 -36 24 -90 54 -119 65 l-53 21 -11 -28 c-8 -17 -12
-88 -12 -202 0 -162 2 -182 27 -264 68 -220 202 -422 355 -537 l33 -24 -3
-533 -3 -534 -64 99 c-85 129 -271 318 -397 400 -91 60 -189 105 -264 122 -60
13 -64 3 -57 -142 7 -137 32 -252 78 -363 17 -41 30 -77 28 -78 -2 -2 -39 -31
-81 -64 -149 -119 -294 -327 -382 -550 -39 -96 -86 -284 -86 -339 0 -42 -16
-42 -29 -1 -25 88 -205 551 -257 666 -19 41 -34 75 -34 78 0 4 -76 176 -116
261 -13 28 -24 55 -24 60 0 4 28 21 63 37 89 41 218 173 274 281 85 164 123
320 123 506 0 162 -40 342 -96 427 -19 29 -37 20 -121 -61 -201 -193 -333
-527 -336 -854 -1 -72 -2 -131 -3 -130 -1 1 -52 101 -114 222 -134 262 -165
318 -303 539 l-106 169 38 46 c82 100 126 214 143 368 26 234 -39 497 -170
691 -54 79 -156 186 -173 180 -22 -7 -97 -166 -120 -253 -30 -114 -38 -403
-15 -528 9 -48 19 -95 22 -105 6 -19 9 -22 -56 59 -78 95 -165 197 -219 254
-31 33 -73 83 -93 110 -47 64 -154 155 -268 226 -225 142 -521 220 -722 191
-45 -6 -86 -16 -92 -22 -12 -12 31 -107 96 -206 53 -82 189 -222 221 -228 12
-3 75 -10 140 -16 181 -16 366 -67 548 -148 l67 -30 53 24 c52 24 53 25 69 6
142 -176 177 -219 185 -231 6 -7 36 -38 67 -68 69 -67 143 -172 195 -278 22
-44 71 -132 109 -195 105 -172 105 -171 45 -120 -77 65 -118 97 -193 147 l-67
45 -81 -16 c-90 -18 -244 -21 -335 -6 -138 22 -374 118 -503 204 -55 37 -97
41 -109 10 -8 -22 90 -213 155 -300 119 -160 298 -308 488 -402 106 -53 273
-108 375 -123 157 -23 343 2 462 62 l38 20 77 -158 c43 -87 100 -191 126 -231
63 -96 92 -162 76 -172 -9 -5 -9 -12 -1 -26 19 -33 122 -276 118 -280 -2 -2
-18 16 -36 39 -31 40 -153 154 -197 183 -18 13 -33 12 -109 -1 -161 -28 -295
-15 -476 45 -183 60 -333 143 -459 250 -55 47 -55 47 -100 36 -29 -7 -46 -17
-48 -28 -4 -22 72 -176 127 -257 174 -256 436 -439 766 -536 68 -20 121 -28
215 -32 140 -6 225 8 332 52 35 14 67 27 72 28 10 2 28 -40 123 -292 36 -96
80 -198 98 -225 18 -28 44 -74 58 -102 23 -45 24 -53 11 -66 -14 -13 -8 -37
51 -209 82 -240 114 -339 109 -339 -2 0 -21 26 -43 57 -72 106 -237 250 -395
345 -64 39 -88 48 -125 48 -127 0 -320 54 -487 136 -106 51 -115 54 -189 54
-92 0 -196 -16 -222 -35 -17 -12 -14 -20 39 -127 158 -315 423 -537 786 -658
236 -79 470 -74 640 14 44 22 48 21 60 -21 59 -224 116 -398 143 -438 l30 -45
-28 -25 c-15 -13 -36 -27 -45 -30 -13 -5 -18 -17 -18 -41 l0 -34 -346 0 c-384
0 -391 1 -555 72 l-74 32 -200 0 c-164 1 -214 -2 -278 -18 -119 -29 -120 -30
-73 -122 54 -106 143 -223 244 -322 l84 -84 -1 -98 -2 -98 159 -1 c157 -2 160
-2 239 -36 144 -60 360 -117 483 -127 l35 -3 3 -268 2 -267 120 0 119 0 6 -32
c3 -18 9 -170 14 -338 6 -168 26 -782 45 -1365 20 -583 37 -1134 39 -1225 3
-91 21 -645 41 -1231 20 -586 40 -1220 46 -1410 5 -189 18 -591 29 -894 11
-302 17 -553 14 -558 -2 -4 -14 0 -26 8 -18 13 -97 15 -569 15 l-548 0 0 -85
0 -85 110 0 110 0 0 -125 0 -125 469 0 469 0 5 -77 4 -78 -293 -914 c-162
-503 -295 -915 -296 -916 -2 -1 -147 -8 -323 -14 -702 -26 -2406 -101 -2673
-117 l-102 -7 0 1482 0 1481 300 0 300 0 0 4170 0 4170 -480 0 -480 0 0 1935
c0 1917 0 1935 -20 1935 -18 0 -20 -8 -22 -107 l-3 -108 -275 0 -275 0 -3 108
c-2 99 -4 107 -22 107 -19 0 -20 8 -20 230 l0 230 -25 0 -25 0 0 -125 0 -125
-305 0 -305 0 0 125 0 125 -50 0 -50 0 0 -125 0 -125 -305 0 -305 0 0 125 0
125 -25 0 c-23 0 -24 -3 -27 -67 -3 -62 -5 -68 -25 -71 -22 -3 -23 -7 -23
-123 l0 -119 -295 0 -295 0 0 119 0 120 -27 3 -28 3 -3 243 c-2 234 -3 242
-22 242 -19 0 -20 -7 -20 -130 l0 -130 -330 0 -330 0 0 130 0 130 -55 0 -55 0
0 -130 0 -130 -330 0 -330 0 0 130 0 130 -25 0 -25 0 0 -2340 0 -2340 -376 2
-375 3 -340 753 c-186 413 -339 758 -339 765 0 6 128 529 285 1161 157 632
285 1155 285 1162 0 12 -291 14 -1854 14 l-1854 0 -14 -47 c-8 -27 -236 -895
-508 -1930 l-495 -1883 -407 0 -408 0 0 -4170 0 -4170 300 0 300 0 -2 -1987
-3 -1988 -50 -12 c-444 -109 -569 -142 -716 -189 -279 -90 -450 -163 -569
-244 -290 -197 -212 -393 232 -585 2622 -1132 17205 -1873 31983 -1625 11661
196 20225 963 20848 1869 128 186 -74 372 -602 552 -609 208 -1708 418 -3131
597 l-305 39 -5 159 c-5 153 -6 161 -35 213 -158 286 -884 532 -1915 650 -299
34 -681 61 -867 61 -56 0 -108 3 -117 6 -15 6 -16 1076 -16 12039 l0 12033
113 6 c61 3 180 8 262 11 486 19 1044 74 1505 150 1111 184 1832 497 1940 844
22 70 24 100 10 151 -5 19 -255 1477 -555 3240 -300 1763 -553 3248 -562 3300
-20 111 -32 126 -133 173 -300 138 -1120 241 -2195 277 -263 9 -994 11 -1250
3z m-35935 -19628 l0 -2155 -305 0 -305 0 0 2155 0 2155 305 0 305 0 0 -2155z
m2070 -150 l0 -2005 -280 0 -280 0 0 2005 0 2005 280 0 280 0 0 -2005z m-5634
1783 c-4 -18 -199 -829 -434 -1803 l-428 -1770 -1407 -3 c-774 -1 -1407 0
-1407 2 0 3 211 802 469 1778 258 975 473 1785 476 1801 l7 27 1365 0 1365 0
-6 -32z m12234 -2013 l0 -1785 -250 0 -250 0 0 1785 0 1785 250 0 250 0 0
-1785z m1710 -125 l0 -1660 -235 0 -235 0 0 1660 0 1660 235 0 235 0 0 -1660z
m-3932 563 c37 -32 96 -85 132 -118 68 -64 163 -114 255 -136 28 -6 56 -13 63
-15 9 -3 12 -119 12 -541 0 -295 -4 -533 -8 -528 -5 6 -14 50 -20 99 -6 49
-14 91 -17 94 -3 3 -22 0 -42 -6 l-38 -12 -88 95 c-49 52 -92 95 -96 95 -4 0
-17 -33 -30 -72 -34 -106 -93 -229 -157 -325 -49 -73 -54 -86 -41 -96 14 -10
8 -23 -43 -92 -74 -100 -158 -261 -201 -383 l-32 -93 -63 218 c-65 227 -117
394 -203 648 -28 82 -49 155 -46 162 2 7 11 13 19 13 8 0 50 18 92 40 78 40
94 42 94 11 0 -43 16 -24 67 77 29 59 87 154 128 211 79 111 121 199 154 323
26 100 45 267 38 335 -3 29 -3 53 0 53 3 0 35 -26 71 -57z m462 -1958 l0 -265
-216 0 -216 0 17 28 c36 54 115 148 175 207 59 57 124 165 158 264 9 27 16 31
46 31 l36 0 0 -265z m29308 -5802 l-3 -4898 -80 -2 c-277 -8 -702 -38 -954
-69 -68 -8 -125 -13 -127 -12 -2 2 292 9130 296 9176 0 1 104 2 230 2 l230 0
0 350 0 350 205 0 205 0 -2 -4897z m-33678 2782 l0 -1415 -5245 0 -5245 0 0
1415 0 1415 5245 0 5245 0 0 -1415z m4793 1408 c3 -5 8 -134 11 -288 3 -154 8
-323 11 -375 7 -104 191 -5826 200 -6189 4 -176 3 -226 -7 -233 -7 -4 -145 -8
-305 -8 l-293 0 0 28 c0 127 211 6466 215 6470 3 3 5 -4 5 -16 0 -19 6 -22 40
-22 46 0 46 -1 25 102 -49 228 -64 349 -58 444 l6 94 73 0 c40 0 75 -3 77 -7z
m7609 1 c3 -3 -32 -98 -79 -212 -46 -114 -114 -279 -150 -367 -35 -88 -71
-173 -78 -190 -8 -16 -49 -115 -91 -220 -43 -104 -111 -271 -152 -370 -40 -99
-89 -218 -108 -265 -19 -47 -39 -94 -44 -105 -5 -11 -41 -99 -80 -195 -71
-173 -159 -389 -299 -730 -39 -96 -76 -184 -81 -195 -5 -11 -29 -69 -54 -130
-24 -60 -97 -238 -161 -395 -65 -157 -140 -339 -167 -405 -27 -66 -53 -129
-58 -140 -29 -62 -250 -613 -250 -622 0 -23 159 -158 279 -238 202 -134 399
-231 674 -334 132 -49 404 -132 478 -146 l36 -7 203 379 c112 208 429 792 705
1298 580 1062 576 1055 580 1055 1 0 0 -1159 -3 -2575 -4 -2140 -3 -2577 8
-2591 21 -24 115 -69 210 -98 164 -52 291 -68 582 -73 147 -3 278 -3 291 1 22
5 28 24 82 260 33 140 61 253 63 251 4 -3 49 -1521 53 -1750 l1 -120 -90 -3
-91 -3 -7 28 c-12 56 -43 169 -53 196 -8 21 -15 26 -26 19 -54 -30 -186 -159
-300 -292 -232 -271 -399 -415 -668 -576 -327 -195 -534 -265 -652 -220 -54
21 -56 34 -15 96 16 25 30 50 30 55 0 6 44 49 98 96 117 103 358 376 497 563
l29 39 -1150 -7 c-2067 -12 -3833 -39 -6049 -92 l-281 -7 -31 104 c-17 57
-104 344 -193 638 l-162 534 6 261 c4 144 9 282 12 309 l6 47 384 0 384 0 0
125 0 125 110 0 110 0 0 85 0 85 -484 0 c-267 0 -487 4 -490 9 -3 4 42 1459
100 3232 59 1773 108 3310 110 3414 2 105 6 232 10 283 l6 92 3227 0 c1775 0
3230 -2 3233 -6z m17882 -121 c11 -227 309 -9504 305 -9507 -2 -2 -152 4 -334
15 -1411 79 -3405 165 -4935 214 -267 8 -540 18 -607 21 l-123 6 0 77 c0 106
178 6465 186 6628 l6 132 76 57 c470 352 921 1175 1263 2303 27 90 52 168 55
172 3 5 927 9 2053 9 l2048 0 7 -127z m1290 118 c7 -10 308 -9272 302 -9278
-2 -2 -66 -20 -143 -39 -198 -50 -319 -88 -476 -151 -76 -30 -139 -53 -141
-51 -4 5 305 9502 309 9516 5 14 140 17 149 3z m-7464 -2849 c0 -16 41 -1459
90 -3208 50 -1748 90 -3208 90 -3243 l0 -64 -207 7 c-561 17 -1968 51 -2798
67 -341 6 -621 13 -623 14 -6 5 165 5906 172 5912 3 3 111 19 238 34 528 61
1028 142 1458 234 85 18 187 36 225 39 384 36 923 127 1220 205 139 37 135 37
135 3z m-24110 -1862 l0 -1510 -5245 0 -5245 0 0 1510 0 1510 5245 0 5245 0 0
-1510z m15880 1280 c683 -61 1635 -90 2430 -74 256 5 468 7 472 4 8 -6 172
-5740 164 -5747 -2 -2 -480 0 -1063 6 -582 6 -1439 11 -1905 11 -466 0 -849 3
-851 8 -2 4 25 972 59 2152 l63 2145 46 230 c49 246 144 765 195 1060 17 99
33 193 36 209 l6 29 67 -7 c36 -3 163 -15 281 -26z m4312 -2923 l83 -2917
-515 6 c-283 4 -518 9 -522 13 -4 3 29 1266 72 2806 44 1540 80 2839 80 2887
l0 86 83 6 c326 24 623 41 629 37 4 -4 44 -1319 90 -2924z m-20842 -1741 l0
-1495 -42 -5 c-24 -3 -137 -10 -253 -16 -115 -6 -439 -24 -720 -41 -3350 -196
-6125 -462 -7883 -754 -150 -25 -279 -45 -287 -45 -13 0 -15 234 -15 1925 l0
1925 4600 0 4600 0 0 -1494z m5183 21 c59 -347 107 -642 107 -654 0 -13 5 -23
11 -23 6 0 8 -8 5 -17 -3 -10 16 -148 43 -308 27 -159 48 -291 47 -292 -1 -1
-94 -5 -207 -9 l-205 -7 3 59 c1 32 14 437 28 899 28 920 31 985 48 985 8 0
49 -220 120 -633z m502 621 c3 -11 51 -1498 58 -1803 l2 -100 -30 0 -30 0 -52
445 c-28 245 -54 465 -57 490 -50 441 -70 618 -90 783 l-23 197 109 0 c78 0
110 -4 113 -12z m-1330 -1675 l8 -272 -34 -5 c-54 -9 -319 -12 -319 -4 0 4 33
92 74 195 40 104 108 276 149 383 42 107 82 209 89 225 11 27 13 15 19 -110 4
-77 10 -262 14 -412z m2015 -43 c33 -90 60 -165 60 -167 0 -2 -31 -3 -70 -3
l-70 0 0 148 c0 133 6 199 16 189 2 -2 31 -77 64 -167z"/>
<path d="M9790 13959 c-44 -18 -90 -59 -112 -102 -48 -95 -12 -214 82 -267
l45 -25 1005 -3 c735 -2 1019 0 1059 8 86 19 161 110 161 196 0 72 -55 154
-125 185 -38 18 -94 19 -1065 18 -649 0 -1034 -4 -1050 -10z"/>
<path d="M9821 10649 c-105 -21 -181 -131 -162 -236 11 -57 57 -119 105 -143
42 -20 56 -20 1082 -20 l1039 0 40 23 c44 25 93 96 101 148 16 96 -64 207
-164 228 -64 13 -1972 14 -2041 0z"/>
<path d="M37250 37058 c0 -86 0 -86 38 -124 21 -22 45 -50 54 -64 l17 -25 0
46 c1 25 -2 73 -6 105 -6 54 -11 63 -55 103 l-48 44 0 -85z"/>
<path d="M36740 37029 c-304 -79 -531 -320 -616 -656 -13 -52 -24 -114 -24
-137 1 -40 1 -39 26 33 111 327 491 613 911 686 47 8 108 15 134 15 27 0 49 4
49 9 0 10 -82 44 -145 60 -67 18 -250 12 -335 -10z"/>
<path d="M37344 36620 c-7 -14 -30 -46 -53 -72 l-41 -46 0 -127 0 -127 37 32
c36 32 37 32 112 25 300 -27 588 -152 797 -348 130 -121 216 -256 255 -401
l19 -71 -5 70 c-13 157 -75 328 -170 471 -206 308 -601 442 -917 309 -16 -6
-18 6 -20 151 -2 127 -5 153 -14 134z"/>
<path d="M33748 36493 c88 -87 140 -177 168 -294 l16 -67 42 19 c53 24 105 24
225 -1 167 -34 345 -103 481 -187 l45 -27 -64 73 c-110 124 -264 254 -404 340
-108 66 -231 125 -235 112 -6 -17 -19 -13 -24 7 -4 13 -35 27 -109 50 -57 17
-122 34 -144 38 -22 3 -48 8 -58 11 -10 2 17 -31 61 -74z"/>
<path d="M43046 36542 c110 -80 195 -222 228 -384 l6 -27 43 19 c54 25 105 25
227 0 168 -34 337 -99 458 -176 28 -19 52 -31 52 -28 0 3 -26 35 -57 71 -83
94 -222 213 -343 295 -117 79 -283 164 -288 148 -6 -16 -20 -12 -27 8 -6 20
-119 60 -250 87 -93 20 -94 19 -49 -13z"/>
<path d="M33246 36420 c-34 -11 -66 -38 -66 -57 0 -28 36 -67 114 -121 147
-102 238 -214 294 -360 24 -60 26 -81 27 -208 l0 -140 -43 -50 c-46 -52 -185
-179 -215 -195 -17 -9 -17 -6 -10 43 21 140 -2 272 -71 413 -91 184 -182 241
-242 150 -23 -36 -9 -93 57 -237 47 -100 52 -119 57 -198 6 -104 -14 -205 -58
-298 -29 -61 -32 -64 -107 -98 -83 -38 -173 -75 -173 -71 0 1 7 25 15 52 38
124 28 310 -21 412 -27 55 -52 71 -93 58 -50 -16 -60 -82 -39 -261 10 -94 10
-105 -11 -174 -30 -98 -66 -167 -91 -175 -11 -3 -20 -11 -20 -16 0 -6 -53 -65
-118 -132 -133 -138 -166 -182 -222 -299 -96 -200 -110 -433 -39 -623 16 -44
30 -59 113 -120 90 -66 261 -175 276 -175 3 0 -5 33 -18 73 -37 106 -43 316
-13 439 26 109 72 229 111 291 94 149 257 97 237 -75 -4 -26 -23 -111 -44
-188 l-38 -140 -42 0 -41 0 19 -50 c10 -28 19 -59 19 -70 0 -13 10 -24 25 -30
17 -6 25 -17 25 -33 0 -116 144 -394 212 -410 13 -2 81 -21 152 -41 71 -20
131 -34 133 -33 1 2 -9 32 -23 67 -41 102 -66 233 -68 352 0 58 2 109 5 113 4
3 53 13 109 20 56 8 105 17 109 20 11 6 21 -80 21 -175 0 -41 5 -102 10 -135
12 -77 89 -230 143 -288 l42 -44 158 -18 c86 -10 160 -15 163 -12 3 3 -11 37
-30 76 -44 87 -82 216 -91 308 -11 109 27 161 96 133 44 -19 76 -84 105 -211
27 -125 73 -230 128 -294 l34 -40 134 -15 135 -15 -33 60 c-39 70 -59 152 -50
201 8 42 28 44 82 8 48 -31 70 -56 144 -164 100 -145 98 -144 240 -179 228
-58 408 -143 550 -263 l73 -61 -7 177 c-4 98 -9 183 -12 191 -3 8 -31 35 -62
60 -72 60 -102 101 -102 141 0 63 61 84 126 43 l34 -21 0 85 c0 46 -3 99 -6
116 -10 48 -83 122 -231 233 -196 146 -229 204 -159 274 42 42 73 44 143 9 48
-24 120 -92 190 -180 l32 -40 1 30 c0 17 -5 68 -10 114 -8 75 -14 92 -53 150
-90 135 -200 235 -413 377 -128 85 -164 129 -164 202 0 94 97 107 253 34 102
-48 163 -89 235 -155 28 -28 52 -47 52 -44 0 34 -48 202 -68 237 -41 73 -216
240 -322 310 -110 72 -232 135 -346 179 -101 39 -144 80 -151 144 -4 36 -1 49
15 65 82 82 346 21 590 -134 28 -19 52 -31 52 -28 0 3 -24 56 -53 117 -46 96
-63 121 -120 174 -80 75 -156 127 -257 178 -126 63 -191 83 -366 110 -208 33
-311 64 -359 109 l-35 34 -35 -76 c-20 -42 -39 -71 -43 -66 -5 5 -14 32 -20
59 -26 104 -102 238 -189 336 -110 122 -272 190 -377 159z m118 -2462 c26 -11
62 -56 53 -65 -3 -2 -45 1 -94 9 l-88 13 27 28 c29 29 62 34 102 15z"/>
<path d="M42586 36416 c-92 -34 -74 -85 66 -183 229 -161 328 -350 316 -605
l-5 -101 -104 -102 c-57 -55 -118 -111 -135 -123 l-31 -21 4 117 c6 142 -10
220 -67 337 -51 103 -98 165 -142 189 -31 17 -40 18 -66 7 -38 -16 -57 -58
-47 -108 4 -21 29 -86 56 -144 27 -58 54 -132 60 -165 21 -111 -7 -275 -63
-376 -17 -30 -38 -44 -117 -81 -141 -67 -153 -71 -147 -50 25 87 29 123 29
223 -1 200 -56 315 -138 284 -43 -17 -55 -102 -35 -262 9 -66 8 -94 -5 -148
-21 -93 -68 -188 -100 -202 -14 -6 -25 -16 -25 -22 0 -6 -57 -70 -127 -143
-141 -147 -196 -229 -244 -370 -57 -167 -60 -343 -7 -510 l21 -69 101 -74 c56
-41 143 -99 193 -129 l93 -54 -15 37 c-31 79 -45 169 -45 293 0 151 27 272 91
408 52 111 102 161 163 161 56 0 92 -28 107 -82 14 -53 5 -111 -41 -272 l-38
-131 -40 -3 -41 -3 20 -56 c10 -31 19 -64 19 -75 0 -11 7 -18 20 -18 13 0 21
-9 25 -27 21 -100 38 -160 59 -207 27 -60 93 -162 122 -187 16 -14 203 -73
298 -94 25 -5 28 -4 21 12 -29 69 -58 157 -71 217 -18 86 -29 276 -16 294 5 8
42 18 82 23 40 5 88 13 106 18 19 5 36 6 39 1 3 -5 10 -80 14 -167 10 -164 17
-195 69 -299 32 -64 100 -161 118 -168 17 -7 324 -39 329 -34 3 2 -13 39 -34
81 -70 138 -110 348 -79 407 21 38 62 48 95 24 48 -36 63 -68 97 -205 35 -142
73 -230 131 -296 l33 -38 133 -15 134 -15 -38 76 c-40 78 -58 179 -39 208 29
41 125 -39 232 -193 39 -57 79 -111 88 -119 9 -8 58 -25 107 -37 259 -64 446
-153 599 -284 l59 -51 -6 146 c-11 234 -10 230 -78 284 -101 79 -134 169 -73
197 27 13 88 3 104 -17 28 -34 33 -15 27 97 -7 111 -7 112 -45 157 -21 25
-101 93 -177 151 -199 151 -242 217 -181 283 69 75 181 27 312 -133 32 -39 60
-66 62 -60 2 6 -1 57 -8 113 -11 96 -15 106 -58 172 -83 125 -232 258 -431
385 -104 67 -141 114 -141 181 0 37 5 53 23 70 64 61 306 -35 465 -185 46 -43
53 -47 48 -26 -53 227 -52 226 -196 371 -55 55 -134 121 -187 157 -101 66
-276 156 -363 186 -35 12 -70 34 -97 61 -37 36 -43 48 -43 84 0 50 22 75 80
91 101 27 354 -51 515 -160 63 -42 66 -43 58 -23 -3 10 -27 63 -53 118 -39 84
-57 110 -112 161 -105 98 -248 185 -394 240 -34 13 -138 35 -230 49 -210 33
-316 65 -362 111 l-33 33 -35 -75 c-35 -73 -54 -92 -54 -54 0 38 -60 184 -107
259 -128 205 -339 328 -477 277z m151 -2481 c20 -20 33 -38 30 -41 -5 -5 -168
15 -176 22 -3 2 6 15 19 29 36 38 83 34 127 -10z"/>
<path d="M37250 35806 c0 -87 3 -102 27 -143 20 -34 27 -63 31 -118 4 -67 2
-80 -27 -140 -29 -62 -31 -75 -31 -175 l0 -109 58 -5 c403 -41 720 -179 971
-421 157 -152 248 -294 290 -455 20 -75 20 -75 20 -28 1 65 -22 180 -58 287
-116 347 -351 581 -676 676 -142 41 -320 45 -452 9 l-23 -6 -1 243 c-1 134 -4
273 -8 309 -6 63 -7 66 -63 119 l-58 54 0 -97z"/>
<path d="M36665 35884 c-100 -21 -170 -41 -235 -68 -213 -90 -385 -256 -499
-484 -64 -127 -122 -338 -120 -440 l0 -47 19 70 c61 235 232 450 492 622 220
145 456 226 753 259 l60 7 -61 29 c-34 15 -92 35 -130 43 -63 13 -230 19 -279
9z"/>
<path d="M31422 35300 c0 -19 2 -27 5 -17 2 9 2 25 0 35 -3 9 -5 1 -5 -18z"/>
<path d="M40772 35295 c0 -16 2 -22 5 -12 2 9 2 23 0 30 -3 6 -5 -1 -5 -18z"/>
<path d="M32297 35239 c-30 -17 -48 -75 -54 -172 -5 -75 -4 -89 8 -84 8 3 37
13 66 23 l51 17 6 51 c8 65 -7 146 -30 163 -21 15 -24 16 -47 2z"/>
<path d="M41647 35239 c-28 -17 -48 -66 -53 -137 -3 -37 -6 -81 -9 -98 l-3
-31 56 23 c32 13 63 24 70 24 16 0 17 162 1 193 -20 36 -34 42 -62 26z"/>
<path d="M31930 34943 c-19 -17 -59 -81 -94 -149 l-61 -118 -62 -25 -63 -24
-2 -51 c-5 -133 12 -178 131 -344 l38 -53 6 69 c13 134 71 313 142 433 19 33
35 62 35 65 0 2 -11 2 -25 -2 -30 -7 -30 -6 -8 48 20 49 24 151 7 168 -9 9
-20 4 -44 -17z"/>
<path d="M41275 34938 c-22 -20 -58 -78 -93 -147 l-57 -114 -61 -24 c-61 -24
-62 -25 -68 -70 -16 -118 -8 -140 103 -308 l66 -99 7 74 c15 146 70 313 143
435 19 32 35 59 35 61 0 3 -12 1 -27 -2 -24 -6 -26 -5 -19 17 29 93 36 128 30
161 -3 21 -10 40 -15 43 -4 3 -25 -9 -44 -27z"/>
<path d="M37250 34245 l0 -305 -182 0 c-407 0 -878 -38 -878 -70 0 -13 36 -30
73 -35 162 -21 227 -26 542 -40 111 -5 466 -6 920 -3 186 1 533 29 608 49 54
14 47 36 -15 48 -126 26 -510 51 -779 51 l-137 0 -3 261 c-4 241 -6 263 -22
273 -10 6 -41 26 -69 44 -27 17 -52 32 -54 32 -2 0 -4 -137 -4 -305z"/>
<path d="M4150 29700 l0 -4480 3510 0 3510 0 0 4480 0 4480 -3510 0 -3510 0 0
-4480z m6430 0 l0 -4050 -2915 0 -2915 0 0 4050 0 4050 2915 0 2915 0 0 -4050z"/>
<path d="M7483 30289 l-33 -21 0 -359 0 -359 48 0 49 0 6 338 c5 302 4 341
-11 379 -9 24 -19 43 -22 43 -3 0 -20 -10 -37 -21z"/>
<path d="M7715 29915 c11 -182 15 -249 15 -307 l0 -58 50 0 50 0 0 38 c0 20
-5 102 -10 182 l-11 145 -50 50 -51 50 7 -100z"/>
<path d="M7964 29777 c3 -12 6 -68 6 -124 l0 -103 50 0 50 0 0 48 c0 26 -3 70
-6 97 -6 49 -8 52 -56 77 -49 27 -50 27 -44 5z"/>
<path d="M12120 29700 l0 -4480 3505 0 3505 0 0 4480 0 4480 -3505 0 -3505 0
0 -4480z m6420 0 l0 -4050 -2915 0 -2915 0 0 4050 0 4050 2915 0 2915 0 0
-4050z"/>
<path d="M20080 29700 l0 -4480 3510 0 3510 0 0 4480 0 4480 -3510 0 -3510 0
0 -4480z m6430 0 l0 -4050 -2920 0 -2920 0 0 4050 0 4050 2920 0 2920 0 0
-4050z"/>
<path d="M24244 32193 c-72 -151 -139 -307 -162 -383 -6 -19 -34 -102 -61
-185 -27 -82 -56 -184 -65 -225 -8 -41 -27 -124 -42 -185 -35 -147 -49 -220
-80 -410 -42 -256 -51 -322 -64 -460 -6 -71 -16 -148 -20 -170 -5 -22 -14
-116 -20 -210 -6 -93 -15 -199 -20 -235 -13 -95 -25 -750 -13 -750 5 0 18 6
28 14 17 12 19 26 17 121 -1 59 -6 113 -12 120 -7 9 -7 21 1 41 6 16 12 103
15 194 3 141 25 470 37 565 3 16 0 37 -6 47 -8 12 -6 33 7 80 10 34 20 77 22
93 2 17 11 90 19 162 9 73 14 136 11 141 -3 5 2 37 10 73 24 99 53 289 47 305
-3 8 6 53 21 101 35 122 69 280 61 293 -8 13 18 112 46 175 25 56 29 69 88
280 23 83 57 177 75 210 52 96 117 245 131 303 7 28 11 52 8 52 -2 0 -38 -71
-79 -157z"/>
<path d="M21817 31604 c19 -41 107 -154 203 -261 31 -34 73 -94 93 -134 54
-103 135 -236 180 -293 41 -53 99 -160 91 -169 -6 -6 91 -202 140 -282 20 -33
35 -66 34 -75 -3 -19 77 -210 114 -271 16 -26 30 -59 32 -75 2 -16 26 -87 53
-159 28 -71 52 -134 54 -140 2 -5 21 -41 43 -78 26 -46 35 -72 29 -78 -10 -10
95 -341 126 -397 6 -12 14 -38 16 -57 8 -58 76 -278 97 -313 15 -24 17 -36 9
-46 -8 -9 -6 -33 8 -87 10 -41 31 -127 45 -192 19 -81 37 -134 58 -169 28 -46
30 -52 15 -63 -15 -10 -14 -22 8 -141 13 -71 27 -153 31 -182 4 -30 24 -86 46
-130 39 -77 40 -77 33 -32 -3 25 -10 63 -15 85 -5 22 -21 114 -35 205 -44 275
-114 585 -185 825 -11 39 -22 81 -25 95 -7 40 -76 264 -85 275 -4 6 -38 102
-75 215 -37 113 -70 210 -74 215 -4 6 -25 57 -46 115 -48 134 -126 332 -135
345 -4 6 -35 75 -69 155 -150 353 -414 824 -582 1041 -91 117 -198 245 -223
269 l-27 24 18 -40z"/>
<path d="M25539 30843 c-14 -16 -43 -50 -64 -78 -22 -27 -48 -59 -58 -70 -24
-26 -127 -171 -127 -179 0 -4 -23 -41 -52 -84 -60 -89 -227 -407 -265 -502
-14 -36 -45 -107 -69 -157 -24 -51 -58 -134 -75 -185 -18 -51 -40 -109 -49
-128 -25 -50 -173 -492 -214 -640 -40 -143 -74 -287 -81 -338 -2 -19 -9 -49
-14 -66 -6 -17 -20 -92 -32 -166 -11 -74 -27 -162 -35 -195 -21 -92 -16 -107
15 -45 33 66 79 313 62 334 -7 8 -4 21 9 44 11 18 29 70 39 115 11 45 27 109
36 141 9 32 14 69 11 81 -4 14 1 32 12 46 20 26 74 207 66 220 -3 5 2 21 10
37 24 46 101 286 98 306 -1 10 9 39 24 65 30 54 103 238 110 278 3 15 15 43
27 63 27 44 77 165 77 189 0 9 14 39 32 67 41 64 100 184 103 209 3 28 49 106
80 135 14 13 25 27 25 32 0 5 15 32 33 61 18 29 46 79 62 112 17 32 53 84 80
115 75 82 129 152 143 183 6 15 10 27 9 27 -2 0 -14 -12 -28 -27z"/>
<path d="M23735 28561 c-14 -32 -19 -59 -15 -88 5 -42 5 -42 27 -25 21 16 22
22 15 88 l-7 71 -20 -46z"/>
<path d="M23795 27951 c-17 -39 -17 -43 10 -208 53 -333 53 -333 84 -333 l28
0 -23 118 c-12 64 -35 193 -49 287 -14 93 -28 171 -29 172 -2 2 -11 -15 -21
-36z"/>
<path d="M24367 27738 c-10 -106 -21 -221 -24 -255 -5 -58 -4 -63 14 -63 19 0
21 9 27 93 4 50 14 161 23 246 13 130 14 155 2 162 -8 5 -16 9 -19 9 -3 0 -14
-87 -23 -192z"/>
<path d="M23348 27698 c-13 -12 -13 -27 0 -150 l15 -138 27 0 27 0 -13 103
c-7 56 -12 104 -12 107 5 81 -9 105 -44 78z"/>
<path d="M28610 30980 l0 -290 8480 0 8480 0 0 290 0 290 -8480 0 -8480 0 0
-290z"/>
<path d="M38519 29807 c-125 -47 -195 -154 -206 -318 -19 -261 106 -556 376
-887 75 -93 90 -116 78 -125 -57 -49 -166 -213 -210 -317 -19 -47 -53 -125
-75 -175 -72 -159 -99 -271 -161 -661 -22 -138 -51 -297 -66 -353 -27 -107
-89 -289 -103 -303 -4 -4 -20 49 -36 119 -121 557 -389 945 -791 1145 -82 41
-199 82 -283 98 -56 11 -64 16 -123 83 -191 213 -496 346 -989 431 -538 94
-1011 93 -1428 0 -544 -121 -977 -426 -1180 -829 -27 -54 -38 -65 -107 -104
-329 -193 -577 -559 -626 -928 -13 -95 -7 -253 11 -343 35 -168 109 -350 143
-350 23 0 22 9 -22 132 -72 200 -94 443 -56 621 27 129 30 123 31 -56 1 -187
19 -338 57 -477 25 -89 65 -190 76 -190 3 0 46 11 96 25 49 14 95 25 101 25 7
0 6 -26 -3 -86 -13 -85 -13 -86 16 -178 70 -218 100 -466 81 -673 -20 -228
-73 -396 -243 -768 -183 -403 -222 -502 -265 -675 -22 -89 -26 -128 -26 -250
-1 -166 18 -251 80 -375 56 -111 103 -166 329 -390 163 -162 223 -228 260
-287 107 -176 139 -367 94 -562 -18 -75 -41 -128 -135 -306 -125 -238 -182
-372 -221 -518 -21 -80 -26 -121 -27 -237 -1 -164 12 -226 76 -355 34 -69 60
-102 133 -175 94 -93 191 -158 200 -133 3 7 16 46 30 87 l25 74 -26 30 c-27
33 -64 100 -64 118 0 6 21 -15 46 -46 25 -31 49 -54 52 -50 3 3 61 171 128
373 148 448 266 766 345 931 191 401 492 676 884 807 56 19 108 34 115 34 6 0
40 25 73 56 70 63 209 135 298 154 l56 13 6 86 c3 47 3 129 -1 181 l-7 95 -45
-2 c-212 -9 -403 -5 -487 10 -420 76 -811 344 -1074 736 -134 199 -206 371
-236 566 -13 83 -14 146 -7 375 5 151 8 370 8 485 0 250 -10 311 -110 665 -49
175 -62 235 -53 241 43 26 566 23 794 -5 215 -27 445 -65 735 -121 313 -61
383 -71 600 -84 142 -9 420 -1 507 14 28 5 35 1 66 -37 49 -61 112 -192 157
-327 113 -337 129 -658 50 -967 -36 -140 -72 -231 -225 -569 -143 -316 -194
-444 -231 -581 -25 -90 -28 -115 -28 -279 -1 -162 1 -188 22 -255 57 -179 124
-273 349 -488 296 -283 379 -414 401 -642 18 -179 -1 -247 -163 -565 -190
-375 -235 -517 -235 -746 0 -318 138 -532 442 -684 112 -56 164 -68 175 -39 9
24 -28 91 -94 167 -72 85 -143 184 -143 200 0 7 17 -8 37 -33 40 -49 93 -102
194 -195 45 -42 74 -80 97 -126 53 -109 41 -184 -39 -252 l-44 -37 30 -25 c17
-14 61 -35 99 -47 58 -17 85 -20 170 -15 182 10 508 109 685 208 29 17 55 28
57 26 3 -2 -21 -25 -53 -51 -32 -26 -66 -54 -75 -61 -18 -15 -24 -35 -10 -36
4 0 39 -8 77 -18 l70 -17 -5 -290 c-9 -527 -6 -1728 5 -1746 9 -15 45 -1 315
123 421 192 978 470 1140 569 74 45 166 97 203 116 60 31 67 37 61 57 -18 57
-159 419 -219 562 -343 816 -396 925 -695 1415 -140 231 -137 225 -203 416
-125 363 -162 578 -154 894 9 392 75 597 251 778 33 35 79 76 101 92 39 27 41
31 59 121 40 200 126 461 250 754 l54 130 3211 3 3211 2 0 290 0 290 -3130 0
-3130 0 0 48 c0 80 -19 207 -46 299 -52 185 -133 325 -472 819 -172 252 -294
516 -356 776 -7 29 12 53 192 257 158 179 201 253 302 521 61 161 140 333 159
344 5 4 12 -35 15 -91 4 -54 9 -122 12 -150 5 -51 7 -53 35 -53 l30 0 -1 216
-1 215 50 77 51 76 0 -292 0 -292 35 0 35 0 0 53 c1 28 5 192 9 362 l9 310 46
84 c25 46 46 86 46 90 0 3 4 12 9 19 6 10 38 -17 122 -100 155 -155 405 -378
514 -461 122 -92 285 -173 285 -141 0 3 -25 79 -54 169 -85 252 -135 358 -336
704 -159 275 -214 407 -309 737 -112 389 -154 492 -289 714 -39 63 -81 132
-94 154 -34 56 -174 196 -242 241 -125 81 -287 122 -367 92z m-5340 -4249 c79
-238 113 -491 93 -700 -22 -235 -77 -400 -230 -686 -173 -325 -207 -433 -207
-652 0 -137 2 -150 31 -232 38 -106 116 -225 232 -355 204 -228 276 -330 317
-450 46 -133 54 -291 21 -434 l-12 -54 -7 82 c-13 148 -67 281 -168 415 -27
37 -127 141 -221 230 -190 182 -261 266 -313 371 -56 115 -77 212 -78 357 -1
225 52 396 273 875 149 323 206 479 242 660 34 169 30 479 -9 643 -3 12 -3 22
0 22 3 0 19 -42 36 -92z m3206 -433 c47 -182 59 -297 52 -484 -10 -268 -56
-419 -227 -741 -168 -315 -213 -453 -214 -655 -1 -144 12 -200 70 -320 50
-104 100 -172 254 -345 242 -271 308 -421 297 -670 -3 -63 -11 -133 -18 -155
l-13 -40 -7 85 c-10 139 -51 249 -142 385 -22 33 -140 159 -262 280 -247 245
-283 293 -338 457 -30 89 -31 100 -31 253 1 142 4 171 28 259 37 138 88 266
234 586 179 394 230 541 261 747 16 103 13 361 -4 477 -8 55 -15 102 -14 105
1 20 46 -114 74 -224z"/>
<path d="M41465 28824 c-179 -38 -333 -123 -469 -260 -260 -263 -423 -743
-466 -1374 -5 -80 -13 -176 -16 -214 l-7 -70 39 32 c52 42 173 96 259 116 111
25 187 34 390 46 105 6 228 15 275 21 212 24 423 83 568 159 l72 37 0 -268 0
-269 33 0 34 0 6 247 6 248 -25 63 c-51 127 -64 234 -41 333 39 165 160 250
337 235 41 -3 87 -8 101 -12 25 -5 26 -3 44 77 10 45 19 102 19 127 l1 45 -90
18 c-385 78 -653 258 -832 557 -29 48 -57 93 -63 100 -10 11 -127 15 -175 6z"/>
<path d="M42304 27065 c3 -33 6 -100 7 -150 1 -126 4 -135 45 -135 l35 0 -7
133 -6 132 -40 40 -40 40 6 -60z"/>
<path d="M42491 26898 c1 -107 5 -118 45 -118 l34 0 -1 48 c-1 69 -10 90 -46
113 l-33 21 1 -64z"/>
<path d="M35338 25890 c-232 -42 -425 -202 -507 -420 l-21 -55 28 35 c86 110
171 179 289 239 170 85 334 93 528 26 134 -45 220 -88 303 -149 34 -25 65 -46
68 -46 19 0 -64 118 -131 185 -86 86 -180 142 -285 170 -69 19 -210 27 -272
15z"/>
<path d="M33604 25721 c-36 -22 -65 -60 -88 -115 -23 -54 -20 -59 13 -25 24
23 38 29 73 29 107 0 242 -73 375 -203 46 -44 86 -78 89 -74 8 8 -32 128 -64
192 -39 78 -61 104 -119 142 -108 69 -219 91 -279 54z"/>
<path d="M35390 25442 c-36 -36 -60 -117 -60 -202 0 -128 52 -230 117 -230 40
0 67 22 94 77 20 41 23 63 23 153 0 90 -3 112 -23 153 -41 82 -98 101 -151 49z
m138 -74 c17 -17 15 -63 -4 -79 -14 -11 -18 -10 -30 6 -17 22 -18 40 -4 66 12
22 21 24 38 7z"/>
<path d="M33847 25312 c-64 -71 -83 -247 -37 -350 26 -60 51 -82 93 -82 42 0
64 16 89 63 20 37 23 57 23 162 0 105 -3 125 -23 162 -12 23 -31 47 -41 53
-31 16 -86 12 -104 -8z m138 -117 c0 -33 -3 -40 -20 -40 -15 0 -21 8 -23 28
-5 39 5 59 25 55 14 -2 18 -13 18 -43z"/>
<path d="M21845 19554 c-22 -31 -46 -65 -54 -75 -13 -18 -10 -19 82 -19 l96 0
7 37 c4 21 8 54 8 73 l1 35 -50 2 -50 3 -40 -56z"/>
<path d="M29915 18596 c-98 -25 -158 -74 -196 -160 -64 -145 -11 -333 132
-478 52 -52 88 -77 165 -115 l99 -48 110 0 c119 1 154 12 223 70 77 65 110
205 77 329 -34 128 -137 265 -250 331 -115 68 -262 97 -360 71z"/>
</g>
</svg>
